<mxfile host="65bd71144e">
    <diagram id="C5RBs43oDa-KdzZeNtuy" name="Page-1">
        <mxGraphModel dx="1972" dy="2631" grid="1" gridSize="10" guides="1" tooltips="1" connect="1" arrows="1" fold="1" page="1" pageScale="1" pageWidth="827" pageHeight="1169" math="0" shadow="0">
            <root>
                <mxCell id="WIyWlLk6GJQsqaUBKTNV-0"/>
                <mxCell id="WIyWlLk6GJQsqaUBKTNV-1" parent="WIyWlLk6GJQsqaUBKTNV-0"/>
                <mxCell id="vblCKuAPqdNXYbJieRVI-6" style="edgeStyle=orthogonalEdgeStyle;rounded=0;orthogonalLoop=1;jettySize=auto;html=1;entryX=0.005;entryY=0.323;entryDx=0;entryDy=0;entryPerimeter=0;" parent="WIyWlLk6GJQsqaUBKTNV-1" source="9YPH6oFA1HYCxB9OwzUm-16" target="9YPH6oFA1HYCxB9OwzUm-29" edge="1">
                    <mxGeometry relative="1" as="geometry"/>
                </mxCell>
                <mxCell id="9YPH6oFA1HYCxB9OwzUm-16" value="id&lt;br&gt;username&lt;br&gt;password" style="whiteSpace=wrap;html=1;aspect=fixed;" parent="WIyWlLk6GJQsqaUBKTNV-1" vertex="1">
                    <mxGeometry x="440" y="-330" width="160" height="160" as="geometry"/>
                </mxCell>
                <mxCell id="9YPH6oFA1HYCxB9OwzUm-17" value="ADMIN" style="rounded=0;whiteSpace=wrap;html=1;fillColor=#e51400;fontColor=#ffffff;strokeColor=#B20000;" parent="WIyWlLk6GJQsqaUBKTNV-1" vertex="1">
                    <mxGeometry x="440" y="-360" width="160" height="30" as="geometry"/>
                </mxCell>
                <mxCell id="9YPH6oFA1HYCxB9OwzUm-19" value="Na syndeete mono t&lt;br&gt;GET olous tous user&lt;br&gt;DELETE olous tous user&lt;br&gt;&lt;br&gt;GET ta panta se statistika vivlia/users/type of book" style="rounded=0;whiteSpace=wrap;html=1;" parent="WIyWlLk6GJQsqaUBKTNV-1" vertex="1">
                    <mxGeometry x="440" y="-170" width="160" height="110" as="geometry"/>
                </mxCell>
                <mxCell id="9YPH6oFA1HYCxB9OwzUm-22" value="OTI KAI USER +++" style="rounded=0;whiteSpace=wrap;html=1;" parent="WIyWlLk6GJQsqaUBKTNV-1" vertex="1">
                    <mxGeometry x="860" y="180" width="180" height="210" as="geometry"/>
                </mxCell>
                <mxCell id="9YPH6oFA1HYCxB9OwzUm-24" value="LIBRARY ADMIN" style="rounded=0;whiteSpace=wrap;html=1;fillColor=#6a00ff;fontColor=#ffffff;strokeColor=#3700CC;" parent="WIyWlLk6GJQsqaUBKTNV-1" vertex="1">
                    <mxGeometry x="860" y="180" width="180" height="60" as="geometry"/>
                </mxCell>
                <mxCell id="vblCKuAPqdNXYbJieRVI-11" style="edgeStyle=orthogonalEdgeStyle;rounded=0;orthogonalLoop=1;jettySize=auto;html=1;exitX=1;exitY=0.5;exitDx=0;exitDy=0;entryX=1;entryY=0;entryDx=0;entryDy=52.5;entryPerimeter=0;" parent="WIyWlLk6GJQsqaUBKTNV-1" source="9YPH6oFA1HYCxB9OwzUm-25" target="vblCKuAPqdNXYbJieRVI-7" edge="1">
                    <mxGeometry relative="1" as="geometry"/>
                </mxCell>
                <mxCell id="vblCKuAPqdNXYbJieRVI-12" value="ADDING BOOk&lt;br&gt;TO DB" style="edgeLabel;html=1;align=center;verticalAlign=middle;resizable=0;points=[];" parent="vblCKuAPqdNXYbJieRVI-11" vertex="1" connectable="0">
                    <mxGeometry x="0.1101" y="-3" relative="1" as="geometry">
                        <mxPoint as="offset"/>
                    </mxGeometry>
                </mxCell>
                <mxCell id="vblCKuAPqdNXYbJieRVI-32" style="edgeStyle=orthogonalEdgeStyle;rounded=0;orthogonalLoop=1;jettySize=auto;html=1;entryX=0.714;entryY=1.067;entryDx=0;entryDy=0;entryPerimeter=0;" parent="WIyWlLk6GJQsqaUBKTNV-1" source="9YPH6oFA1HYCxB9OwzUm-25" target="9YPH6oFA1HYCxB9OwzUm-32" edge="1">
                    <mxGeometry relative="1" as="geometry"/>
                </mxCell>
                <mxCell id="vblCKuAPqdNXYbJieRVI-33" value="register san booker&lt;br&gt;" style="edgeLabel;html=1;align=center;verticalAlign=middle;resizable=0;points=[];" parent="vblCKuAPqdNXYbJieRVI-32" vertex="1" connectable="0">
                    <mxGeometry x="0.5302" y="-2" relative="1" as="geometry">
                        <mxPoint as="offset"/>
                    </mxGeometry>
                </mxCell>
                <mxCell id="9YPH6oFA1HYCxB9OwzUm-25" value="Add book(if not exist)" style="rounded=0;whiteSpace=wrap;html=1;" parent="WIyWlLk6GJQsqaUBKTNV-1" vertex="1">
                    <mxGeometry x="860" y="330" width="180" height="60" as="geometry"/>
                </mxCell>
                <mxCell id="9YPH6oFA1HYCxB9OwzUm-27" value="username&lt;br&gt;password&lt;br&gt;" style="rounded=0;whiteSpace=wrap;html=1;" parent="WIyWlLk6GJQsqaUBKTNV-1" vertex="1">
                    <mxGeometry x="730" y="-340" width="160" height="50" as="geometry"/>
                </mxCell>
                <mxCell id="9YPH6oFA1HYCxB9OwzUm-28" value="LOGIN SYSTEM" style="rounded=0;whiteSpace=wrap;html=1;fillColor=#60a917;fontColor=#ffffff;strokeColor=#2D7600;" parent="WIyWlLk6GJQsqaUBKTNV-1" vertex="1">
                    <mxGeometry x="730" y="-400" width="160" height="60" as="geometry"/>
                </mxCell>
                <mxCell id="vblCKuAPqdNXYbJieRVI-8" style="edgeStyle=orthogonalEdgeStyle;rounded=0;orthogonalLoop=1;jettySize=auto;html=1;" parent="WIyWlLk6GJQsqaUBKTNV-1" source="9YPH6oFA1HYCxB9OwzUm-29" target="vblCKuAPqdNXYbJieRVI-7" edge="1">
                    <mxGeometry relative="1" as="geometry"/>
                </mxCell>
                <mxCell id="vblCKuAPqdNXYbJieRVI-37" value="ADD NEW USER&lt;br&gt;" style="edgeLabel;html=1;align=center;verticalAlign=middle;resizable=0;points=[];" parent="vblCKuAPqdNXYbJieRVI-8" vertex="1" connectable="0">
                    <mxGeometry x="0.627" y="-2" relative="1" as="geometry">
                        <mxPoint as="offset"/>
                    </mxGeometry>
                </mxCell>
                <mxCell id="9YPH6oFA1HYCxB9OwzUm-29" value="Username (un)&lt;br&gt;password (confirm)&lt;br&gt;type(admin/user/bookAdmin)&lt;br&gt;email (un)&lt;br&gt;paso (un)&lt;br&gt;first_name&lt;br&gt;last_name&lt;br&gt;gender&lt;br&gt;user_type&lt;br&gt;student_type&lt;br&gt;university&lt;br&gt;appartment&lt;br&gt;address&lt;br&gt;phone&lt;br&gt;url(fb /insta)" style="rounded=0;whiteSpace=wrap;html=1;" parent="WIyWlLk6GJQsqaUBKTNV-1" vertex="1">
                    <mxGeometry x="335" y="40" width="210" height="220" as="geometry"/>
                </mxCell>
                <mxCell id="9YPH6oFA1HYCxB9OwzUm-35" style="edgeStyle=orthogonalEdgeStyle;rounded=0;orthogonalLoop=1;jettySize=auto;html=1;exitX=0.5;exitY=0;exitDx=0;exitDy=0;" parent="WIyWlLk6GJQsqaUBKTNV-1" source="9YPH6oFA1HYCxB9OwzUm-30" edge="1">
                    <mxGeometry relative="1" as="geometry">
                        <mxPoint x="439.5" y="10" as="targetPoint"/>
                    </mxGeometry>
                </mxCell>
                <mxCell id="9YPH6oFA1HYCxB9OwzUm-30" value="REGISTER SYSTEM" style="rounded=0;whiteSpace=wrap;html=1;fillColor=#60a917;fontColor=#ffffff;strokeColor=#2D7600;" parent="WIyWlLk6GJQsqaUBKTNV-1" vertex="1">
                    <mxGeometry x="335" y="10" width="210" height="30" as="geometry"/>
                </mxCell>
                <mxCell id="9YPH6oFA1HYCxB9OwzUm-32" value="After restart" style="rounded=0;whiteSpace=wrap;html=1;" parent="WIyWlLk6GJQsqaUBKTNV-1" vertex="1">
                    <mxGeometry x="335" y="260" width="210" height="30" as="geometry"/>
                </mxCell>
                <mxCell id="vblCKuAPqdNXYbJieRVI-18" style="edgeStyle=orthogonalEdgeStyle;rounded=0;orthogonalLoop=1;jettySize=auto;html=1;entryX=0.024;entryY=0.395;entryDx=0;entryDy=0;entryPerimeter=0;" parent="WIyWlLk6GJQsqaUBKTNV-1" source="9YPH6oFA1HYCxB9OwzUm-33" target="9YPH6oFA1HYCxB9OwzUm-29" edge="1">
                    <mxGeometry relative="1" as="geometry"/>
                </mxCell>
                <mxCell id="9YPH6oFA1HYCxB9OwzUm-33" value="start (apo 1/1/2016)&lt;br&gt;end(mexri 1/1/2023&lt;br&gt;uid" style="rounded=0;whiteSpace=wrap;html=1;" parent="WIyWlLk6GJQsqaUBKTNV-1" vertex="1">
                    <mxGeometry x="60" y="30" width="120" height="60" as="geometry"/>
                </mxCell>
                <mxCell id="9YPH6oFA1HYCxB9OwzUm-34" value="Paso" style="rounded=0;whiteSpace=wrap;html=1;fillColor=#60a917;fontColor=#ffffff;strokeColor=#2D7600;" parent="WIyWlLk6GJQsqaUBKTNV-1" vertex="1">
                    <mxGeometry x="60" width="120" height="30" as="geometry"/>
                </mxCell>
                <mxCell id="vblCKuAPqdNXYbJieRVI-19" style="edgeStyle=orthogonalEdgeStyle;rounded=0;orthogonalLoop=1;jettySize=auto;html=1;entryX=0.005;entryY=0.686;entryDx=0;entryDy=0;entryPerimeter=0;" parent="WIyWlLk6GJQsqaUBKTNV-1" source="9YPH6oFA1HYCxB9OwzUm-37" target="9YPH6oFA1HYCxB9OwzUm-29" edge="1">
                    <mxGeometry relative="1" as="geometry"/>
                </mxCell>
                <mxCell id="9YPH6oFA1HYCxB9OwzUm-37" value="address&lt;br&gt;&lt;br&gt;polh&lt;br&gt;country&lt;br&gt;address" style="rounded=0;whiteSpace=wrap;html=1;" parent="WIyWlLk6GJQsqaUBKTNV-1" vertex="1">
                    <mxGeometry x="20" y="150" width="120" height="80" as="geometry"/>
                </mxCell>
                <mxCell id="9YPH6oFA1HYCxB9OwzUm-40" value="Na kanei login/out kai na menei sto session&lt;br&gt;&lt;br&gt;Na mpore na dei ola ta stoixeia kai na ta allaksei (ektos username)&lt;br&gt;&lt;br&gt;Na vlepei ena list me ta availables books&lt;br&gt;(type/from_year - to_year (&amp;gt;1200 k from_year &amp;lt; to_year))&lt;br&gt;&lt;br&gt;review se book opoio thelei" style="rounded=0;whiteSpace=wrap;html=1;" parent="WIyWlLk6GJQsqaUBKTNV-1" vertex="1">
                    <mxGeometry x="350" y="451" width="170" height="240" as="geometry"/>
                </mxCell>
                <mxCell id="vblCKuAPqdNXYbJieRVI-4" style="edgeStyle=orthogonalEdgeStyle;rounded=0;orthogonalLoop=1;jettySize=auto;html=1;entryX=0.467;entryY=0.967;entryDx=0;entryDy=0;entryPerimeter=0;" parent="WIyWlLk6GJQsqaUBKTNV-1" source="9YPH6oFA1HYCxB9OwzUm-41" target="9YPH6oFA1HYCxB9OwzUm-32" edge="1">
                    <mxGeometry relative="1" as="geometry"/>
                </mxCell>
                <mxCell id="9YPH6oFA1HYCxB9OwzUm-41" value="LOGINED USER" style="rounded=0;whiteSpace=wrap;html=1;fillColor=#fa6800;fontColor=#000000;strokeColor=#C73500;" parent="WIyWlLk6GJQsqaUBKTNV-1" vertex="1">
                    <mxGeometry x="350" y="420" width="170" height="31" as="geometry"/>
                </mxCell>
                <mxCell id="9YPH6oFA1HYCxB9OwzUm-42" value="ISBN(un)&lt;br&gt;Title&lt;br&gt;Writer&lt;br&gt;Type&lt;br&gt;Publish release&lt;br&gt;Pages number&lt;br&gt;Photo&lt;br&gt;bookURL&lt;br&gt;reviews[ ]" style="rounded=0;whiteSpace=wrap;html=1;" parent="WIyWlLk6GJQsqaUBKTNV-1" vertex="1">
                    <mxGeometry x="860" y="525" width="170" height="275" as="geometry"/>
                </mxCell>
                <mxCell id="vblCKuAPqdNXYbJieRVI-36" style="edgeStyle=orthogonalEdgeStyle;rounded=0;orthogonalLoop=1;jettySize=auto;html=1;entryX=0.5;entryY=1;entryDx=0;entryDy=0;" parent="WIyWlLk6GJQsqaUBKTNV-1" source="9YPH6oFA1HYCxB9OwzUm-43" target="9YPH6oFA1HYCxB9OwzUm-25" edge="1">
                    <mxGeometry relative="1" as="geometry"/>
                </mxCell>
                <mxCell id="9YPH6oFA1HYCxB9OwzUm-43" value="BOOK" style="rounded=0;whiteSpace=wrap;html=1;fillColor=#6a00ff;fontColor=#ffffff;strokeColor=#3700CC;" parent="WIyWlLk6GJQsqaUBKTNV-1" vertex="1">
                    <mxGeometry x="860" y="490" width="170" height="35" as="geometry"/>
                </mxCell>
                <mxCell id="9YPH6oFA1HYCxB9OwzUm-45" value="Vlepei ola ta available books&lt;br&gt;&lt;br&gt;" style="rounded=0;whiteSpace=wrap;html=1;" parent="WIyWlLk6GJQsqaUBKTNV-1" vertex="1">
                    <mxGeometry x="50" y="-360" width="160" height="140" as="geometry"/>
                </mxCell>
                <mxCell id="9YPH6oFA1HYCxB9OwzUm-46" value="VISITAKOS" style="rounded=0;whiteSpace=wrap;html=1;fillColor=#fa6800;fontColor=#000000;strokeColor=#C73500;" parent="WIyWlLk6GJQsqaUBKTNV-1" vertex="1">
                    <mxGeometry x="50" y="-360" width="160" height="30" as="geometry"/>
                </mxCell>
                <mxCell id="vblCKuAPqdNXYbJieRVI-20" style="edgeStyle=orthogonalEdgeStyle;rounded=0;orthogonalLoop=1;jettySize=auto;html=1;entryX=0.6;entryY=1;entryDx=0;entryDy=0;entryPerimeter=0;" parent="WIyWlLk6GJQsqaUBKTNV-1" source="vblCKuAPqdNXYbJieRVI-7" target="9YPH6oFA1HYCxB9OwzUm-27" edge="1">
                    <mxGeometry relative="1" as="geometry"/>
                </mxCell>
                <mxCell id="vblCKuAPqdNXYbJieRVI-38" value="GET USER&lt;br&gt;" style="edgeLabel;html=1;align=center;verticalAlign=middle;resizable=0;points=[];" parent="vblCKuAPqdNXYbJieRVI-20" vertex="1" connectable="0">
                    <mxGeometry x="-0.248" y="4" relative="1" as="geometry">
                        <mxPoint x="-1" y="-1" as="offset"/>
                    </mxGeometry>
                </mxCell>
                <mxCell id="vblCKuAPqdNXYbJieRVI-31" style="edgeStyle=orthogonalEdgeStyle;rounded=0;orthogonalLoop=1;jettySize=auto;html=1;entryX=1;entryY=0.75;entryDx=0;entryDy=0;" parent="WIyWlLk6GJQsqaUBKTNV-1" source="vblCKuAPqdNXYbJieRVI-7" target="9YPH6oFA1HYCxB9OwzUm-40" edge="1">
                    <mxGeometry relative="1" as="geometry"/>
                </mxCell>
                <mxCell id="vblCKuAPqdNXYbJieRVI-34" value="USER MONO GET&lt;br&gt;" style="edgeLabel;html=1;align=center;verticalAlign=middle;resizable=0;points=[];" parent="vblCKuAPqdNXYbJieRVI-31" vertex="1" connectable="0">
                    <mxGeometry x="0.7635" relative="1" as="geometry">
                        <mxPoint as="offset"/>
                    </mxGeometry>
                </mxCell>
                <mxCell id="vblCKuAPqdNXYbJieRVI-7" value="TO DB" style="shape=cylinder3;whiteSpace=wrap;html=1;boundedLbl=1;backgroundOutline=1;size=15;fillColor=#0050ef;strokeColor=#001DBC;fontColor=#ffffff;" parent="WIyWlLk6GJQsqaUBKTNV-1" vertex="1">
                    <mxGeometry x="890" y="-130" width="60" height="80" as="geometry"/>
                </mxCell>
                <mxCell id="vblCKuAPqdNXYbJieRVI-15" style="edgeStyle=orthogonalEdgeStyle;rounded=0;orthogonalLoop=1;jettySize=auto;html=1;entryX=0.706;entryY=-0.1;entryDx=0;entryDy=0;entryPerimeter=0;" parent="WIyWlLk6GJQsqaUBKTNV-1" source="vblCKuAPqdNXYbJieRVI-13" target="9YPH6oFA1HYCxB9OwzUm-46" edge="1">
                    <mxGeometry relative="1" as="geometry"/>
                </mxCell>
                <mxCell id="vblCKuAPqdNXYbJieRVI-13" value="OLA TA ACTIONS THELOUN LOGIN PRWTA EKTOS APO&lt;br&gt;" style="text;html=1;align=center;verticalAlign=middle;resizable=0;points=[];autosize=1;strokeColor=#A50040;fillColor=#d80073;fontColor=#ffffff;" parent="WIyWlLk6GJQsqaUBKTNV-1" vertex="1">
                    <mxGeometry x="320" y="-450" width="340" height="30" as="geometry"/>
                </mxCell>
                <mxCell id="vblCKuAPqdNXYbJieRVI-14" style="edgeStyle=orthogonalEdgeStyle;rounded=0;orthogonalLoop=1;jettySize=auto;html=1;exitX=0.5;exitY=1;exitDx=0;exitDy=0;" parent="WIyWlLk6GJQsqaUBKTNV-1" source="9YPH6oFA1HYCxB9OwzUm-45" target="9YPH6oFA1HYCxB9OwzUm-45" edge="1">
                    <mxGeometry relative="1" as="geometry"/>
                </mxCell>
                <mxCell id="vblCKuAPqdNXYbJieRVI-27" value="" style="endArrow=classic;startArrow=classic;html=1;rounded=0;entryX=0;entryY=0;entryDx=0;entryDy=15;entryPerimeter=0;" parent="WIyWlLk6GJQsqaUBKTNV-1" source="9YPH6oFA1HYCxB9OwzUm-16" target="vblCKuAPqdNXYbJieRVI-7" edge="1">
                    <mxGeometry width="50" height="50" relative="1" as="geometry">
                        <mxPoint x="600" y="-200" as="sourcePoint"/>
                        <mxPoint x="670.7106781186548" y="-250" as="targetPoint"/>
                    </mxGeometry>
                </mxCell>
                <mxCell id="vblCKuAPqdNXYbJieRVI-28" value="delete k get apo db&lt;br&gt;" style="edgeLabel;html=1;align=center;verticalAlign=middle;resizable=0;points=[];" parent="vblCKuAPqdNXYbJieRVI-27" vertex="1" connectable="0">
                    <mxGeometry x="-0.3456" y="-6" relative="1" as="geometry">
                        <mxPoint as="offset"/>
                    </mxGeometry>
                </mxCell>
                <mxCell id="vblCKuAPqdNXYbJieRVI-39" value="ADDRESS" style="rounded=0;whiteSpace=wrap;html=1;fillColor=#60a917;fontColor=#ffffff;strokeColor=#2D7600;" parent="WIyWlLk6GJQsqaUBKTNV-1" vertex="1">
                    <mxGeometry x="20" y="150" width="120" height="20" as="geometry"/>
                </mxCell>
            </root>
        </mxGraphModel>
    </diagram>
</mxfile>